<?xml version="1.0" standalone="no"?><!DOCTYPE svg PUBLIC "-//W3C//DTD SVG 1.1//EN" "http://www.w3.org/Graphics/SVG/1.1/DTD/svg11.dtd"><svg t="1735930291679" class="icon" viewBox="0 0 1024 1024" version="1.1" xmlns="http://www.w3.org/2000/svg" p-id="1611" width="128" height="128" xmlns:xlink="http://www.w3.org/1999/xlink"><path d="M512 512m-512 0a512 512 0 1 0 1024 0 512 512 0 1 0-1024 0Z" fill="#3AD0F9" p-id="1612"></path><path d="M0 512c0 184 97.6 345.6 243.2 436 17.6 10.4 36 20 54.4 28V437.6H5.6C1.6 462.4 0 487.2 0 512z" fill="#EAEAEA" p-id="1613"></path><path d="M0 512l297.6 1.6V400H12.8C4 436 0 473.6 0 512z" fill="#FF4848" p-id="1614"></path><path d="M1018.4 439.2H727.2v537.6c2.4-0.8 4.8-2.4 8-3.2C905.6 890.4 1024 715.2 1024 512c0-24.8-1.6-48.8-5.6-72.8z" fill="#EAEAEA" p-id="1615"></path><path d="M240 946.4c17.6 11.2 36.8 20.8 56 29.6V514.4h-56v432z" fill="#D4D6D6" p-id="1616"></path><path d="M1.6 552h296v-32.8H0zM1022.4 552h-296v-32.8H1024c-0.8 11.2-0.8 21.6-1.6 32.8z" fill="#D4D6D6" p-id="1617"></path><path d="M784 946.4c-17.6 11.2-36.8 20.8-56 29.6V514.4h56v432z" fill="#D4D6D6" p-id="1618"></path><path d="M297.6 279.2h428v736H297.6z" fill="#EAEAEA" p-id="1619"></path><path d="M297.6 356h424.8V384H297.6z" fill="#D4D6D6" p-id="1620"></path><path d="M720 1024H296c-4.8 0-8-3.2-8-8V280c0-4 3.2-8 8-8l424-8c2.4 0 4 0.8 5.6 2.4 1.6 1.6 2.4 3.2 2.4 5.6v744c0 4.8-3.2 8-8 8z m-416-16h408V280l-408 8v720z" fill="#663210" p-id="1621"></path><path d="M416 901.6h212v112.8H416z" fill="#FFFFFF" p-id="1622"></path><path d="M412 907.2H624v28.8H412z" fill="#EAEAEA" p-id="1623"></path><path d="M624 1024H408c-4.8 0-8-3.2-8-8v-112c0-4.8 3.2-8 8-8h216c4.8 0 8 3.2 8 8v112c0 4.8-3.2 8-8 8z m-208-16h200v-96H416v96z" fill="#663210" p-id="1624"></path><path d="M751.2 328c0 17.6-14.4 32-32 32L304 355.2c-17.6 0-32-14.4-32-32v-48.8c0-17.6 14.4-32 32-32h415.2c17.6 0 32 14.4 32 32V328z" fill="#FF4848" p-id="1625"></path><path d="M719.2 321.6H304c-17.6 0-32-14.4-32-32v33.6c0 17.6 14.4 32 32 32h415.2c17.6 0 32-14.4 32-32v-33.6c0 17.6-14.4 32-32 32z" fill="#E02020" p-id="1626"></path><path d="M720 360H304c-22.4 0-40-17.6-40-40v-48c0-22.4 17.6-40 40-40h416c22.4 0 40 17.6 40 40v48c0 22.4-17.6 40-40 40zM304 248c-13.6 0-24 10.4-24 24v48c0 13.6 10.4 24 24 24h416c13.6 0 24-10.4 24-24v-48c0-13.6-10.4-24-24-24H304z" fill="#663210" p-id="1627"></path><path d="M512 240m-76 0a76 76 0 1 0 152 0 76 76 0 1 0-152 0Z" fill="#FFFFFF" p-id="1628"></path><path d="M512 320c-44 0-80-36-80-80s36-80 80-80 80 36 80 80-36 80-80 80z m0-144.8c-36 0-64.8 28.8-64.8 64.8s28.8 64.8 64.8 64.8 64.8-28.8 64.8-64.8-28.8-64.8-64.8-64.8zM944 1024H80c-4.8 0-8-3.2-8-8s4-8 8-8h864c4.8 0 8 3.2 8 8s-4 8-8 8z" fill="#663210" p-id="1629"></path><path d="M727.2 513.6h296v-0.8c0-38.4-4-76-12.8-112H727.2v112.8z" fill="#FF4848" p-id="1630"></path><path d="M727.2 510.4h296c0-12-0.8-24-1.6-36H727.2v36zM0 472h297.6v38.4H0z" fill="#E02020" p-id="1631"></path><path d="M719.2 400v112.8c0 4.8 3.2 6.4 8 6.4h296v-8-8H728V408h284.8c-0.8-5.6-2.4-10.4-4-16H727.2c-4.8 0-8 4-8 8zM512 1017.6c-4.8 0-8-3.2-8-8v-104.8c0-4.8 3.2-8 8-8s8 3.2 8 8v104.8c0 4.8-3.2 8-8 8zM487.2 976H472c-4.8 0-8.8-3.2-8.8-8s4-8 8.8-8h15.2c4.8 0 8.8 3.2 8.8 8s-4 8-8.8 8zM559.2 976H544c-4.8 0-8.8-3.2-8.8-8s4-8 8.8-8h15.2c4.8 0 8.8 3.2 8.8 8s-4 8-8.8 8zM512 282.4c-4.8 0-8-3.2-8-8v-71.2c0-4.8 3.2-8 8-8s8 3.2 8 8v71.2c0 4.8-3.2 8-8 8z" fill="#663210" p-id="1632"></path><path d="M547.2 248h-71.2c-4.8 0-8-3.2-8-8s3.2-8 8-8h71.2c4.8 0 8 3.2 8 8s-4 8-8 8z" fill="#663210" p-id="1633"></path><path d="M848 296.8c-17.6 0-32-14.4-32-32.8 0-17.6 14.4-32.8 32-32.8s32 14.4 32 32.8-14.4 32.8-32 32.8z m0-49.6c-9.6 0-16.8 8-16.8 17.6 0 9.6 8 17.6 16.8 17.6 9.6 0 16.8-8 16.8-17.6 0-9.6-7.2-17.6-16.8-17.6zM311.2 192c-18.4 0-32.8-14.4-32.8-32s15.2-32 32.8-32c18.4 0 32.8 14.4 32.8 32s-15.2 32-32.8 32z m0-48.8c-9.6 0-17.6 8-17.6 16.8 0 9.6 8 16.8 17.6 16.8 9.6 0 17.6-8 17.6-16.8 0-9.6-8-16.8-17.6-16.8zM693.6 140c0-3.2-3.2-6.4-8-7.2l-15.2-2.4c-4-0.8-8.8-4.8-8.8-8.8l-2.4-15.2c-0.8-4-4-8-7.2-8s-6.4 3.2-7.2 8l-2.4 15.2c-0.8 4-4.8 8.8-8.8 8.8l-15.2 2.4c-4 0.8-8 4-8 7.2s3.2 6.4 8 7.2l15.2 2.4c4 0.8 8.8 4.8 8.8 8.8l2.4 15.2c0.8 4 4 8 7.2 8s6.4-3.2 6.4-8l2.4-16.8c0.8-4 4.8-8 8.8-8.8l14.4-0.8c6.4-0.8 9.6-4 9.6-7.2zM209.6 296c0-3.2-3.2-6.4-8-7.2l-15.2-2.4c-4-0.8-8.8-4.8-8.8-8.8l-2.4-15.2c-0.8-4-4-8-7.2-8s-6.4 3.2-7.2 8l-2.4 15.2c-0.8 4-4.8 8.8-8.8 8.8l-15.2 2.4c-4 0.8-8 4-8 7.2s3.2 6.4 8 7.2l15.2 2.4c4 0.8 8.8 4.8 8.8 8.8l2.4 15.2c0.8 4 4 8 7.2 8s6.4-3.2 6.4-8l2.4-16.8c0.8-4 4.8-8 8.8-8.8l14.4-0.8c6.4-1.6 9.6-4 9.6-7.2z" fill="#FFFFFF" p-id="1634"></path><path d="M712 280H616c-4 0-8-3.2-8-8s3.2-8 8-8h96c4 0 8 3.2 8 8s-3.2 8-8 8zM408 280H312c-4.8 0-8-3.2-8-8s4-8 8-8h96c4.8 0 8 3.2 8 8s-4 8-8 8zM991.2 440H936c-4.8 0-8.8-3.2-8.8-8s4-8 8.8-8h55.2c4.8 0 8.8 3.2 8.8 8s-4 8-8.8 8zM896 440H760c-4.8 0-8-3.2-8-8s3.2-8 8-8h136c4.8 0 8 3.2 8 8s-3.2 8-8 8zM256 440H40c-4.8 0-8-3.2-8-8s3.2-8 8-8h216c4.8 0 8 3.2 8 8s-3.2 8-8 8z" fill="#FFFFFF" opacity=".5" p-id="1635"></path><path d="M296 392H14.4c-1.6 5.6-2.4 10.4-4 16H288v96H0v16h297.6c4.8 0 6.4-2.4 6.4-6.4V400c0-4-3.2-8-8-8z" fill="#663210" p-id="1636"></path><path d="M426.4 497.6c0 8.8-7.2 16-16 16h-40c-8.8 0-16-7.2-16-16v-58.4c0-8.8 7.2-16 16-16h40c8.8 0 16 7.2 16 16v58.4z" fill="#3AD0F9" p-id="1637"></path><path d="M408 520h-40c-13.6 0-24-10.4-24-24v-56c0-12.8 10.4-24 24-24l40 0.8c12.8 0 24 11.2 24 24V496c0 13.6-10.4 24-24 24z m-40-88c-4.8 0-8 3.2-8 8v56c0 4.8 3.2 8 8 8h40c4.8 0 8-3.2 8-8v-55.2c0-4-4-8.8-8-8.8h-40z" fill="#663210" p-id="1638"></path><path d="M382.4 481.6c-2.4 0-4-0.8-5.6-2.4-3.2-3.2-3.2-8 0-11.2l19.2-19.2c3.2-3.2 8-3.2 11.2 0 3.2 3.2 3.2 8 0 11.2L388.8 480c-1.6 1.6-4 1.6-6.4 1.6z" fill="#FFFFFF" p-id="1639"></path><path d="M546.4 497.6c0 8.8-7.2 16-16 16h-40c-8.8 0-16-7.2-16-16v-58.4c0-8.8 7.2-16 16-16h40c8.8 0 16 7.2 16 16v58.4z" fill="#3AD0F9" p-id="1640"></path><path d="M528 520h-40c-13.6 0-24-10.4-24-24v-56c0-12.8 10.4-24 24-24l40 0.8c12.8 0 24 11.2 24 24V496c0 13.6-10.4 24-24 24z m-40-88c-4.8 0-8 3.2-8 8v56c0 4.8 3.2 8 8 8h40c4.8 0 8-3.2 8-8v-55.2c0-4-4-8.8-8-8.8h-40z" fill="#663210" p-id="1641"></path><path d="M502.4 481.6c-2.4 0-4-0.8-5.6-2.4-3.2-3.2-3.2-8 0-11.2l19.2-19.2c3.2-3.2 8-3.2 11.2 0 3.2 3.2 3.2 8 0 11.2L508.8 480c-1.6 1.6-4 1.6-6.4 1.6z" fill="#FFFFFF" p-id="1642"></path><path d="M666.4 497.6c0 8.8-7.2 16-16 16h-40c-8.8 0-16-7.2-16-16v-58.4c0-8.8 7.2-16 16-16h40c8.8 0 16 7.2 16 16v58.4z" fill="#3AD0F9" p-id="1643"></path><path d="M648 520h-40c-13.6 0-24-10.4-24-24v-56c0-12.8 10.4-24 24-24l40 0.8c12.8 0 24 11.2 24 24V496c0 13.6-10.4 24-24 24z m-40-88c-4 0-8 3.2-8 8v56c0 4.8 3.2 8 8 8h40c4.8 0 8-3.2 8-8v-55.2c0-4-4-8.8-8-8.8h-40z" fill="#663210" p-id="1644"></path><path d="M622.4 481.6c-2.4 0-4-0.8-5.6-2.4-3.2-3.2-3.2-8 0-11.2l19.2-19.2c3.2-3.2 8-3.2 11.2 0 3.2 3.2 3.2 8 0 11.2L628.8 480c-1.6 1.6-4 1.6-6.4 1.6z" fill="#FFFFFF" p-id="1645"></path><path d="M426.4 657.6c0 8.8-7.2 16-16 16h-40c-8.8 0-16-7.2-16-16v-58.4c0-8.8 7.2-16 16-16h40c8.8 0 16 7.2 16 16v58.4z" fill="#3AD0F9" p-id="1646"></path><path d="M408 680h-40c-13.6 0-24-10.4-24-24v-56c0-12.8 10.4-24 24-24l40 0.8c12.8 0 24 11.2 24 24V656c0 13.6-10.4 24-24 24z m-40-88c-4.8 0-8 3.2-8 8v56c0 4.8 3.2 8 8 8h40c4.8 0 8-3.2 8-8v-55.2c0-4-4-8.8-8-8.8h-40z" fill="#663210" p-id="1647"></path><path d="M382.4 641.6c-2.4 0-4-0.8-5.6-2.4-3.2-3.2-3.2-8 0-11.2l19.2-19.2c3.2-3.2 8-3.2 11.2 0 3.2 3.2 3.2 8 0 11.2L388.8 640c-1.6 1.6-4 1.6-6.4 1.6z" fill="#FFFFFF" p-id="1648"></path><path d="M546.4 657.6c0 8.8-7.2 16-16 16h-40c-8.8 0-16-7.2-16-16v-58.4c0-8.8 7.2-16 16-16h40c8.8 0 16 7.2 16 16v58.4z" fill="#3AD0F9" p-id="1649"></path><path d="M528 680h-40c-13.6 0-24-10.4-24-24v-56c0-12.8 10.4-24 24-24l40 0.8c12.8 0 24 11.2 24 24V656c0 13.6-10.4 24-24 24z m-40-88c-4.8 0-8 3.2-8 8v56c0 4.8 3.2 8 8 8h40c4.8 0 8-3.2 8-8v-55.2c0-4-4-8.8-8-8.8h-40z" fill="#663210" p-id="1650"></path><path d="M502.4 641.6c-2.4 0-4-0.8-5.6-2.4-3.2-3.2-3.2-8 0-11.2l19.2-19.2c3.2-3.2 8-3.2 11.2 0 3.2 3.2 3.2 8 0 11.2L508.8 640c-1.6 1.6-4 1.6-6.4 1.6z" fill="#FFFFFF" p-id="1651"></path><path d="M666.4 657.6c0 8.8-7.2 16-16 16h-40c-8.8 0-16-7.2-16-16v-58.4c0-8.8 7.2-16 16-16h40c8.8 0 16 7.2 16 16v58.4z" fill="#3AD0F9" p-id="1652"></path><path d="M648 680h-40c-13.6 0-24-10.4-24-24v-56c0-12.8 10.4-24 24-24l40 0.8c12.8 0 24 11.2 24 24V656c0 13.6-10.4 24-24 24z m-40-88c-4 0-8 3.2-8 8v56c0 4.8 3.2 8 8 8h40c4.8 0 8-3.2 8-8v-55.2c0-4-4-8.8-8-8.8h-40z" fill="#663210" p-id="1653"></path><path d="M622.4 641.6c-2.4 0-4-0.8-5.6-2.4-3.2-3.2-3.2-8 0-11.2l19.2-19.2c3.2-3.2 8-3.2 11.2 0 3.2 3.2 3.2 8 0 11.2L628.8 640c-1.6 1.6-4 1.6-6.4 1.6z" fill="#FFFFFF" p-id="1654"></path><path d="M426.4 817.6c0 8.8-7.2 16-16 16h-40c-8.8 0-16-7.2-16-16v-58.4c0-8.8 7.2-16 16-16h40c8.8 0 16 7.2 16 16v58.4z" fill="#3AD0F9" p-id="1655"></path><path d="M408 840h-40c-13.6 0-24-10.4-24-24v-56c0-12.8 10.4-24 24-24l40 0.8c12.8 0 24 11.2 24 24v55.2c0 13.6-10.4 24-24 24z m-40-88c-4.8 0-8 3.2-8 8v56c0 4.8 3.2 8 8 8h40c4.8 0 8-3.2 8-8v-55.2c0-4-4-8.8-8-8.8h-40z" fill="#663210" p-id="1656"></path><path d="M382.4 801.6c-2.4 0-4-0.8-5.6-2.4-3.2-3.2-3.2-8 0-11.2l19.2-19.2c3.2-3.2 8-3.2 11.2 0 3.2 3.2 3.2 8 0 11.2l-19.2 19.2c-0.8 2.4-3.2 2.4-5.6 2.4z" fill="#FFFFFF" p-id="1657"></path><path d="M546.4 817.6c0 8.8-7.2 16-16 16h-40c-8.8 0-16-7.2-16-16v-58.4c0-8.8 7.2-16 16-16h40c8.8 0 16 7.2 16 16v58.4z" fill="#3AD0F9" p-id="1658"></path><path d="M528 840h-40c-13.6 0-24-10.4-24-24v-56c0-12.8 10.4-24 24-24l40 0.8c12.8 0 24 11.2 24 24v55.2c0 13.6-10.4 24-24 24z m-40-88c-4.8 0-8 3.2-8 8v56c0 4.8 3.2 8 8 8h40c4.8 0 8-3.2 8-8v-55.2c0-4-4-8.8-8-8.8h-40z" fill="#663210" p-id="1659"></path><path d="M502.4 801.6c-2.4 0-4-0.8-5.6-2.4-3.2-3.2-3.2-8 0-11.2l19.2-19.2c3.2-3.2 8-3.2 11.2 0 3.2 3.2 3.2 8 0 11.2l-19.2 19.2c-0.8 2.4-3.2 2.4-5.6 2.4z" fill="#FFFFFF" p-id="1660"></path><path d="M666.4 817.6c0 8.8-7.2 16-16 16h-40c-8.8 0-16-7.2-16-16v-58.4c0-8.8 7.2-16 16-16h40c8.8 0 16 7.2 16 16v58.4z" fill="#3AD0F9" p-id="1661"></path><path d="M648 840h-40c-13.6 0-24-10.4-24-24v-56c0-12.8 10.4-24 24-24l40 0.8c12.8 0 24 11.2 24 24v55.2c0 13.6-10.4 24-24 24z m-40-88c-4 0-8 3.2-8 8v56c0 4.8 3.2 8 8 8h40c4.8 0 8-3.2 8-8v-55.2c0-4-4-8.8-8-8.8h-40z" fill="#663210" p-id="1662"></path><path d="M622.4 801.6c-2.4 0-4-0.8-5.6-2.4-3.2-3.2-3.2-8 0-11.2l19.2-19.2c3.2-3.2 8-3.2 11.2 0 3.2 3.2 3.2 8 0 11.2l-19.2 19.2c-0.8 2.4-3.2 2.4-5.6 2.4z" fill="#FFFFFF" p-id="1663"></path><path d="M218.4 657.6c0 8.8-7.2 16-16 16h-40c-8.8 0-16-7.2-16-16v-58.4c0-8.8 7.2-16 16-16h40c8.8 0 16 7.2 16 16v58.4z" fill="#3AD0F9" p-id="1664"></path><path d="M200 680h-40c-13.6 0-24-10.4-24-24v-56c0-12.8 10.4-24 24-24l40 0.8c12.8 0 24 11.2 24 24V656c0 13.6-10.4 24-24 24z m-40-88c-4.8 0-8 3.2-8 8v56c0 4.8 3.2 8 8 8h40c4.8 0 8-3.2 8-8v-55.2c0-4-4-8.8-8-8.8h-40z" fill="#663210" p-id="1665"></path><path d="M174.4 641.6c-2.4 0-4-0.8-5.6-2.4-3.2-3.2-3.2-8 0-11.2l19.2-19.2c3.2-3.2 8-3.2 11.2 0 3.2 3.2 3.2 8 0 11.2L180.8 640c-1.6 1.6-4 1.6-6.4 1.6z" fill="#FFFFFF" p-id="1666"></path><path d="M98.4 657.6c0 8.8-7.2 16-16 16h-40c-8.8 0-16-7.2-16-16v-58.4c0-8.8 7.2-16 16-16h40c8.8 0 16 7.2 16 16v58.4z" fill="#3AD0F9" p-id="1667"></path><path d="M54.4 641.6c-2.4 0-4-0.8-5.6-2.4-3.2-3.2-3.2-8 0-11.2l19.2-19.2c3.2-3.2 8-3.2 11.2 0 3.2 3.2 3.2 8 0 11.2L60.8 640c-1.6 1.6-4 1.6-6.4 1.6z" fill="#FFFFFF" p-id="1668"></path><path d="M218.4 817.6c0 8.8-7.2 16-16 16h-40c-8.8 0-16-7.2-16-16v-58.4c0-8.8 7.2-16 16-16h40c8.8 0 16 7.2 16 16v58.4z" fill="#3AD0F9" p-id="1669"></path><path d="M200 840h-40c-13.6 0-24-10.4-24-24v-56c0-12.8 10.4-24 24-24l40 0.8c12.8 0 24 11.2 24 24v55.2c0 13.6-10.4 24-24 24z m-40-88c-4.8 0-8 3.2-8 8v56c0 4.8 3.2 8 8 8h40c4.8 0 8-3.2 8-8v-55.2c0-4-4-8.8-8-8.8h-40z" fill="#663210" p-id="1670"></path><path d="M174.4 801.6c-2.4 0-4-0.8-5.6-2.4-3.2-3.2-3.2-8 0-11.2l19.2-19.2c3.2-3.2 8-3.2 11.2 0 3.2 3.2 3.2 8 0 11.2l-19.2 19.2c-0.8 2.4-3.2 2.4-5.6 2.4z" fill="#FFFFFF" p-id="1671"></path><path d="M1002.4 657.6c0 8.8-7.2 16-16 16h-40c-8.8 0-16-7.2-16-16v-58.4c0-8.8 7.2-16 16-16h40c8.8 0 16 7.2 16 16v58.4z" fill="#3AD0F9" p-id="1672"></path><path d="M958.4 641.6c-2.4 0-4-0.8-5.6-2.4-3.2-3.2-3.2-8 0-11.2l19.2-19.2c3.2-3.2 8-3.2 11.2 0 3.2 3.2 3.2 8 0 11.2l-19.2 19.2c-0.8 2.4-3.2 2.4-5.6 2.4z" fill="#FFFFFF" p-id="1673"></path><path d="M882.4 657.6c0 8.8-7.2 16-16 16h-40c-8.8 0-16-7.2-16-16v-58.4c0-8.8 7.2-16 16-16h40c8.8 0 16 7.2 16 16v58.4z" fill="#3AD0F9" p-id="1674"></path><path d="M864 680h-40c-13.6 0-24-10.4-24-24v-56c0-12.8 10.4-24 24-24l40 0.8c12.8 0 24 11.2 24 24V656c0 13.6-10.4 24-24 24z m-40-88c-4 0-8 3.2-8 8v56c0 4.8 3.2 8 8 8h40c4.8 0 8-3.2 8-8v-55.2c0-4-4-8.8-8-8.8h-40z" fill="#663210" p-id="1675"></path><path d="M838.4 641.6c-2.4 0-4-0.8-5.6-2.4-3.2-3.2-3.2-8 0-11.2l19.2-19.2c3.2-3.2 8-3.2 11.2 0 3.2 3.2 3.2 8 0 11.2l-19.2 19.2c-0.8 2.4-3.2 2.4-5.6 2.4z" fill="#FFFFFF" p-id="1676"></path><path d="M882.4 817.6c0 8.8-7.2 16-16 16h-40c-8.8 0-16-7.2-16-16v-58.4c0-8.8 7.2-16 16-16h40c8.8 0 16 7.2 16 16v58.4z" fill="#3AD0F9" p-id="1677"></path><path d="M864 840h-40c-13.6 0-24-10.4-24-24v-56c0-12.8 10.4-24 24-24l40 0.8c12.8 0 24 11.2 24 24v55.2c0 13.6-10.4 24-24 24z m-40-88c-4 0-8 3.2-8 8v56c0 4.8 3.2 8 8 8h40c4.8 0 8-3.2 8-8v-55.2c0-4-4-8.8-8-8.8h-40z" fill="#663210" p-id="1678"></path><path d="M838.4 801.6c-2.4 0-4-0.8-5.6-2.4-3.2-3.2-3.2-8 0-11.2l19.2-19.2c3.2-3.2 8-3.2 11.2 0 3.2 3.2 3.2 8 0 11.2l-19.2 19.2c-0.8 2.4-3.2 2.4-5.6 2.4z" fill="#FFFFFF" p-id="1679"></path><path d="M1008 600.8c0-12.8-10.4-24-24-24l-40-0.8c-12.8 0-24 10.4-24 24v56c0 13.6 10.4 24 24 24h40c4.8 0 9.6-1.6 12.8-4 4-12 8-24 11.2-36.8v-38.4z m-16 55.2c0 4.8-3.2 8-8 8h-40c-4.8 0-8-3.2-8-8v-56c0-4 3.2-8 8-8h40c4 0 8 4 8 8.8V656z" fill="#663210" p-id="1680"></path><path d="M968.8 743.2h-22.4c-8.8 0-16 7.2-16 16v48c14.4-20.8 27.2-41.6 38.4-64z" fill="#3AD0F9" p-id="1681"></path><path d="M920 760v57.6c5.6-7.2 11.2-15.2 16.8-22.4V760c0-4 4-8 8-8h18.4c3.2-4.8 5.6-10.4 8.8-16h-27.2c-13.6 0-24.8 10.4-24.8 24z" fill="#663210" p-id="1682"></path><path d="M82.4 743.2H55.2c12.8 24.8 27.2 48.8 44 71.2v-55.2c-0.8-8.8-8-16-16.8-16z" fill="#3AD0F9" p-id="1683"></path><path d="M80 576.8L40 576c-12.8 0-24 10.4-24 24v39.2c3.2 12.8 6.4 24.8 11.2 36.8 3.2 2.4 8 4 12.8 4h40c13.6 0 24-10.4 24-24v-55.2c0-13.6-10.4-24-24-24z m8 79.2c0 4.8-3.2 8-8 8H40c-4.8 0-8-3.2-8-8v-56c0-4 3.2-8 8-8h40c4 0 8 4 8 8.8V656zM80 736.8H51.2c2.4 5.6 5.6 10.4 8 16H80c4 0 8 4 8 8.8v38.4c4.8 7.2 10.4 14.4 15.2 21.6 0-1.6 0.8-3.2 0.8-4.8v-55.2c0-14.4-10.4-24.8-24-24.8z" fill="#663210" p-id="1684"></path><path d="M68.8 768.8c2.4 4.8 5.6 9.6 8.8 14.4l2.4-2.4c3.2-3.2 3.2-8 0-11.2-3.2-3.2-8-4-11.2-0.8z" fill="#FFFFFF" p-id="1685"></path></svg>