<?xml version="1.0" standalone="no"?><!DOCTYPE svg PUBLIC "-//W3C//DTD SVG 1.1//EN" "http://www.w3.org/Graphics/SVG/1.1/DTD/svg11.dtd"><svg t="1735931429832" class="icon" viewBox="0 0 1024 1024" version="1.1" xmlns="http://www.w3.org/2000/svg" p-id="7774" xmlns:xlink="http://www.w3.org/1999/xlink" width="128" height="128"><path d="M135.6288 141.1584L477.3888 12.9536A25.6 25.6 0 0 1 512 36.9664V947.2H102.4V189.0816a51.2 51.2 0 0 1 33.2288-47.9232z" fill="#FFFFFF" p-id="7775"></path><path d="M186.8288 173.1584l290.56-109.0048a25.6 25.6 0 0 1 34.6112 24.0128v843.008H153.6V221.1328a51.2 51.2 0 0 1 33.2288-47.9232z" fill="#C9E0FF" p-id="7776"></path><path d="M510.3616 27.9552A25.6 25.6 0 0 1 512 36.9664V947.2H102.4V189.0816a51.2 51.2 0 0 1 33.2288-47.9232L477.3888 12.9536a25.6 25.6 0 0 1 32.9728 15.0016zM486.4 36.9664L144.5888 165.12a25.6 25.6 0 0 0-16.5888 23.9616V921.6h358.4V36.9664z" fill="#00479D" p-id="7777"></path><path d="M25.6 921.6h972.8a25.6 25.6 0 0 1 25.6 25.6v51.2a25.6 25.6 0 0 1-25.6 25.6H25.6a25.6 25.6 0 0 1-25.6-25.6v-51.2a25.6 25.6 0 0 1 25.6-25.6z" fill="#FFFFFF" p-id="7778"></path><path d="M51.2 972.8h972.8v25.6a25.6 25.6 0 0 1-25.6 25.6H51.2v-51.2z" fill="#C9E0FF" p-id="7779"></path><path d="M998.4 921.6a25.6 25.6 0 0 1 25.6 25.6v51.2a25.6 25.6 0 0 1-25.6 25.6H25.6a25.6 25.6 0 0 1-25.6-25.6v-51.2a25.6 25.6 0 0 1 25.6-25.6h972.8z m0 25.6H25.6v51.2h972.8v-51.2z" fill="#00479D" p-id="7780"></path><path d="M598.8864 168.9088l291.6864 124.9792a51.2 51.2 0 0 1 31.0272 47.104V947.2h-358.4V192.4096a25.6 25.6 0 0 1 35.6864-23.552z" fill="#FFFFFF" p-id="7781"></path><path d="M614.4 204.8l276.1728 118.3744A51.2 51.2 0 0 1 921.6 370.176v566.016h-307.2V204.8z" fill="#C9E0FF" p-id="7782"></path><path d="M588.8 166.8096a25.6 25.6 0 0 1 10.0864 2.048l291.6864 125.0304a51.2 51.2 0 0 1 31.0272 47.104V947.2h-358.4V192.4096a25.6 25.6 0 0 1 25.6-25.6z m0 25.6V921.6h307.2V340.992a25.6 25.6 0 0 0-11.6736-21.504l-3.84-2.048L588.8 192.4096z" fill="#00479D" p-id="7783"></path><path d="M230.4 358.4m25.6 0l102.4 0q25.6 0 25.6 25.6l0 51.2q0 25.6-25.6 25.6l-102.4 0q-25.6 0-25.6-25.6l0-51.2q0-25.6 25.6-25.6Z" fill="#FFFFFF" p-id="7784"></path><path d="M665.6 358.4m25.6 0l102.4 0q25.6 0 25.6 25.6l0 51.2q0 25.6-25.6 25.6l-102.4 0q-25.6 0-25.6-25.6l0-51.2q0-25.6 25.6-25.6Z" fill="#FFFFFF" p-id="7785"></path><path d="M665.6 512m25.6 0l102.4 0q25.6 0 25.6 25.6l0 51.2q0 25.6-25.6 25.6l-102.4 0q-25.6 0-25.6-25.6l0-51.2q0-25.6 25.6-25.6Z" fill="#FFFFFF" p-id="7786"></path><path d="M665.6 665.6m25.6 0l102.4 0q25.6 0 25.6 25.6l0 51.2q0 25.6-25.6 25.6l-102.4 0q-25.6 0-25.6-25.6l0-51.2q0-25.6 25.6-25.6Z" fill="#FFFFFF" p-id="7787"></path><path d="M701.44 394.24h102.4v51.2h-102.4zM701.44 547.84h102.4v51.2h-102.4zM701.44 701.44h102.4v51.2h-102.4z" fill="#C9E0FF" p-id="7788"></path><path d="M793.6 358.4a25.6 25.6 0 0 1 25.6 25.6v51.2a25.6 25.6 0 0 1-25.6 25.6h-102.4a25.6 25.6 0 0 1-25.6-25.6v-51.2A25.6 25.6 0 0 1 691.2 358.4h102.4z m0 25.6h-102.4v51.2h102.4v-51.2zM793.6 512a25.6 25.6 0 0 1 25.6 25.6v51.2a25.6 25.6 0 0 1-25.6 25.6h-102.4a25.6 25.6 0 0 1-25.6-25.6v-51.2A25.6 25.6 0 0 1 691.2 512h102.4z m0 25.6h-102.4v51.2h102.4v-51.2zM793.6 665.6a25.6 25.6 0 0 1 25.6 25.6v51.2a25.6 25.6 0 0 1-25.6 25.6h-102.4a25.6 25.6 0 0 1-25.6-25.6v-51.2A25.6 25.6 0 0 1 691.2 665.6h102.4z m0 25.6h-102.4v51.2h102.4v-51.2z" fill="#00479D" p-id="7789"></path><path d="M230.4 512m25.6 0l102.4 0q25.6 0 25.6 25.6l0 51.2q0 25.6-25.6 25.6l-102.4 0q-25.6 0-25.6-25.6l0-51.2q0-25.6 25.6-25.6Z" fill="#FFFFFF" p-id="7790"></path><path d="M230.4 665.6m25.6 0l102.4 0q25.6 0 25.6 25.6l0 51.2q0 25.6-25.6 25.6l-102.4 0q-25.6 0-25.6-25.6l0-51.2q0-25.6 25.6-25.6Z" fill="#FFFFFF" p-id="7791"></path><path d="M266.24 394.24h102.4v51.2h-102.4zM266.24 547.84h102.4v51.2h-102.4zM266.24 701.44h102.4v51.2h-102.4z" fill="#C9E0FF" p-id="7792"></path><path d="M358.4 358.4a25.6 25.6 0 0 1 25.6 25.6v51.2A25.6 25.6 0 0 1 358.4 460.8H256a25.6 25.6 0 0 1-25.6-25.6v-51.2A25.6 25.6 0 0 1 256 358.4h102.4z m0 25.6H256v51.2h102.4v-51.2zM358.4 512a25.6 25.6 0 0 1 25.6 25.6v51.2a25.6 25.6 0 0 1-25.6 25.6H256a25.6 25.6 0 0 1-25.6-25.6v-51.2A25.6 25.6 0 0 1 256 512h102.4z m0 25.6H256v51.2h102.4v-51.2zM358.4 665.6a25.6 25.6 0 0 1 25.6 25.6v51.2a25.6 25.6 0 0 1-25.6 25.6H256a25.6 25.6 0 0 1-25.6-25.6v-51.2A25.6 25.6 0 0 1 256 665.6h102.4z m0 25.6H256v51.2h102.4v-51.2z" fill="#00479D" p-id="7793"></path></svg>