<?xml version="1.0" standalone="no"?><!DOCTYPE svg PUBLIC "-//W3C//DTD SVG 1.1//EN" "http://www.w3.org/Graphics/SVG/1.1/DTD/svg11.dtd"><svg t="1735931370400" class="icon" viewBox="0 0 1024 1024" version="1.1" xmlns="http://www.w3.org/2000/svg" p-id="3602" xmlns:xlink="http://www.w3.org/1999/xlink" width="128" height="128"><path d="M417.936 496.48c-9.376-9.376-21.648-14.064-33.936-14.064s-24.56 4.688-33.936 14.064A47.828 47.828 0 0 0 336 530.416v240h96v-240c0-12.288-4.688-24.56-14.064-33.936zM545.936 496.48c-9.376-9.376-21.648-14.064-33.936-14.064s-24.56 4.688-33.936 14.064A47.828 47.828 0 0 0 464 530.416v240h96v-240c0-12.288-4.688-24.56-14.064-33.936zM673.936 496.48c-9.376-9.376-21.648-14.064-33.936-14.064s-24.56 4.688-33.936 14.064A47.828 47.828 0 0 0 592 530.416v240h96v-240c0-12.288-4.688-24.56-14.064-33.936z" fill="#57DCF2" p-id="3603"></path><path d="M608 178.416l192 160v48h224v-208zM416 178.416H0v208h224v-48z" fill="#FF5F5C" p-id="3604"></path><path d="M752 770.416h-32v-288h64v-32H240v32h64v288h-32v-256h-64v-96h608v96h-64z" fill="#34303D" p-id="3605"></path><path d="M784 546.416h32v224h-32zM208 546.416h32v224h-32zM208 802.416h608v32H208zM944 578.416h-96v-96h96v96z m-64-32h32v-32h-32v32zM944 706.416h-96v-96h96v96z m-64-32h32v-32h-32v32zM944 834.416h-96v-96h96v96z m-64-32h32v-32h-32v32z" fill="#34303D" p-id="3606"></path><path d="M176 882.416h672v64H176z" fill="#FF5F5C" p-id="3607"></path><path d="M864 946.416h-32v-48H192v48H160v-80h704zM1024 946.416h-128v-32h96v-464h-144v-32h176zM176 578.416H80v-96h96v96z m-64-32h32v-32H112v32zM176 706.416H80v-96h96v96z m-64-32h32v-32H112v32zM176 834.416H80v-96h96v96z m-64-32h32v-32H112v32z" fill="#34303D" p-id="3608"></path><path d="M128 946.416H0v-528h176v32H32v464h96zM816 386.416h-32v-40.512L512 119.248 240 345.904v40.512h-32v-55.488L512 77.584l304 253.344z" fill="#34303D" p-id="3609"></path><path d="M512 178.416l-192 160v48h384v-48z" fill="#57DCF2" p-id="3610"></path><path d="M432 322.416h32v32h-32zM496 322.416h32v32h-32zM560 322.416h32v32h-32z" fill="#34303D" p-id="3611"></path></svg>