<?xml version="1.0" standalone="no"?><!DOCTYPE svg PUBLIC "-//W3C//DTD SVG 1.1//EN" "http://www.w3.org/Graphics/SVG/1.1/DTD/svg11.dtd"><svg t="1735933451170" class="icon" viewBox="0 0 1024 1024" version="1.1" xmlns="http://www.w3.org/2000/svg" p-id="4131" xmlns:xlink="http://www.w3.org/1999/xlink" width="128" height="128"><path d="M970.24 781.824l-43.52-163.84c-22.016-79.36-98.304-135.168-186.368-135.168h-133.12c68.608-36.864 115.2-109.056 115.2-192V215.04c33.792-26.624 51.2-58.368 51.2-92.16 0-24.576-7.68-44.544-24.576-60.928-41.472-37.888-120.32-37.888-220.16-37.888H471.552c-99.84 0-178.688 0-220.16 37.888-16.384 15.872-24.064 35.84-24.064 60.416 0 36.864 21.504 71.68 60.416 98.816v69.12c0 82.944 46.592 155.648 115.2 192H282.624c-87.552 0-164.352 55.296-186.368 135.168l-43.52 163.84c-15.872 48.128-6.656 100.864 25.088 144.384 32.256 46.08 90.112 74.752 151.04 74.752h565.248c60.928 0 118.784-28.672 151.04-74.24 31.744-43.52 40.96-96.256 25.088-144.384z" fill="#FFD251" p-id="4132"></path><path d="M631.296 770.56l124.928-288.256h-61.952L568.32 752.128c-18.432-3.584-37.376-5.12-56.832-5.12-151.552 0-276.992 106.496-303.616 253.44h607.232c-18.432-104.96-89.088-190.464-183.808-229.888z" fill="#FE9E31" p-id="4133"></path><path d="M776.704 803.328m-206.336 0a206.336 206.336 0 1 0 412.672 0 206.336 206.336 0 1 0-412.672 0Z" fill="#00E3B8" p-id="4134"></path><path d="M800.256 886.272c46.592-65.024 69.632-110.08 69.632-135.68 0-9.728-4.608-16.896-14.336-22.528l31.232-31.744c12.288 6.144 18.432 15.872 18.432 29.696 0 16.896-15.872 49.152-47.616 97.28-7.168 10.24-11.776 17.92-14.848 22.528l-6.144 10.752-11.264 18.432c-6.144 10.24-12.8 21.504-19.968 33.792l-34.816 33.792c-6.144-53.76-16.896-102.4-31.232-145.92s-27.136-65.536-38.4-65.536c-12.8 0-21.504 12.8-26.624 37.888-4.608-1.536-7.168-4.608-7.168-8.192 0-12.8 5.632-26.112 16.384-40.96s20.992-22.016 30.72-22.528c35.84-3.072 64.512 60.416 86.016 188.928z" fill="#FFFFFF" p-id="4135"></path></svg>